# xmcd
#
# Track frame offsets: 
#        150
#        15787
#        33275
#        48762
#        62962
#        81362
#        94262
#        110300
#        125725
#        143500
#
# Disc length: 2236 seconds
#
# Revision: 9
# Processed by: cddbd v1.5.2PL0 Copyright (c) Steve Scherf et al.
# Submitted via: ExactAudioCopyFreeDBPlugin 1.0
#
DISCID=7808ba0a
DTITLE=Richard and Linda Thompson - I Want To See The Bright Lights Toni
DTITLE=ght
DYEAR=1974
DGENRE=Folk/Rock
TTITLE0=When I Get To The Border
TTITLE1=The Calvary Cross
TTITLE2=Withered And Died
TTITLE3=I Want To See The Bright Lights Tonight
TTITLE4=Down Where The Drunkards Roll
TTITLE5=We Sing Hallelujah
TTITLE6=Has He Got A Friend For Me
TTITLE7=The Little Beggar Girl
TTITLE8=The End Of The Rainbow
TTITLE9=The Great Valerio
EXTD=YEAR: 1974
EXTT0=
EXTT1=
EXTT2=
EXTT3=
EXTT4=
EXTT5=
EXTT6=
EXTT7=
EXTT8=
EXTT9=
PLAYORDER=
